<mxfile host="app.diagrams.net" agent="Mozilla/5.0 (Windows NT 10.0; Win64; x64; rv:128.0) Gecko/20100101 Firefox/128.0" version="24.8.6">
  <diagram id="C5RBs43oDa-KdzZeNtuy" name="Page-1">
    <mxGraphModel dx="1119" dy="721" grid="1" gridSize="10" guides="1" tooltips="1" connect="1" arrows="1" fold="1" page="1" pageScale="1" pageWidth="827" pageHeight="1169" math="0" shadow="0">
      <root>
        <mxCell id="WIyWlLk6GJQsqaUBKTNV-0" />
        <mxCell id="WIyWlLk6GJQsqaUBKTNV-1" parent="WIyWlLk6GJQsqaUBKTNV-0" />
        <mxCell id="WIyWlLk6GJQsqaUBKTNV-6" value="Lamp&lt;br&gt;plugged in?" style="rhombus;whiteSpace=wrap;html=1;shadow=0;fontFamily=Helvetica;fontSize=12;align=center;strokeWidth=1;spacing=6;spacingTop=-4;" parent="WIyWlLk6GJQsqaUBKTNV-1" vertex="1">
          <mxGeometry x="380" y="190" width="100" height="80" as="geometry" />
        </mxCell>
        <mxCell id="1Yr15xVgiTt50KmXI-pg-13" style="edgeStyle=orthogonalEdgeStyle;rounded=0;orthogonalLoop=1;jettySize=auto;html=1;entryX=0.5;entryY=0;entryDx=0;entryDy=0;" edge="1" parent="WIyWlLk6GJQsqaUBKTNV-1" source="1Yr15xVgiTt50KmXI-pg-0" target="1Yr15xVgiTt50KmXI-pg-6">
          <mxGeometry relative="1" as="geometry" />
        </mxCell>
        <mxCell id="1Yr15xVgiTt50KmXI-pg-0" value="START" style="ellipse;whiteSpace=wrap;html=1;" vertex="1" parent="WIyWlLk6GJQsqaUBKTNV-1">
          <mxGeometry x="175" y="30" width="90" height="50" as="geometry" />
        </mxCell>
        <mxCell id="1Yr15xVgiTt50KmXI-pg-15" style="edgeStyle=orthogonalEdgeStyle;rounded=0;orthogonalLoop=1;jettySize=auto;html=1;entryX=0.5;entryY=0;entryDx=0;entryDy=0;" edge="1" parent="WIyWlLk6GJQsqaUBKTNV-1" source="1Yr15xVgiTt50KmXI-pg-3" target="1Yr15xVgiTt50KmXI-pg-8">
          <mxGeometry relative="1" as="geometry" />
        </mxCell>
        <mxCell id="1Yr15xVgiTt50KmXI-pg-3" value="Key in positive decimal of row address bits" style="shape=parallelogram;perimeter=parallelogramPerimeter;whiteSpace=wrap;html=1;fixedSize=1;" vertex="1" parent="WIyWlLk6GJQsqaUBKTNV-1">
          <mxGeometry x="160" y="170" width="120" height="60" as="geometry" />
        </mxCell>
        <mxCell id="1Yr15xVgiTt50KmXI-pg-17" style="edgeStyle=orthogonalEdgeStyle;rounded=0;orthogonalLoop=1;jettySize=auto;html=1;entryX=0.5;entryY=0;entryDx=0;entryDy=0;" edge="1" parent="WIyWlLk6GJQsqaUBKTNV-1" source="1Yr15xVgiTt50KmXI-pg-4" target="1Yr15xVgiTt50KmXI-pg-9">
          <mxGeometry relative="1" as="geometry" />
        </mxCell>
        <mxCell id="1Yr15xVgiTt50KmXI-pg-4" value="Key in positive decimal of column address bits" style="shape=parallelogram;perimeter=parallelogramPerimeter;whiteSpace=wrap;html=1;fixedSize=1;" vertex="1" parent="WIyWlLk6GJQsqaUBKTNV-1">
          <mxGeometry x="160" y="330" width="120" height="60" as="geometry" />
        </mxCell>
        <mxCell id="1Yr15xVgiTt50KmXI-pg-19" style="edgeStyle=orthogonalEdgeStyle;rounded=0;orthogonalLoop=1;jettySize=auto;html=1;" edge="1" parent="WIyWlLk6GJQsqaUBKTNV-1" source="1Yr15xVgiTt50KmXI-pg-5" target="1Yr15xVgiTt50KmXI-pg-10">
          <mxGeometry relative="1" as="geometry" />
        </mxCell>
        <mxCell id="1Yr15xVgiTt50KmXI-pg-5" value="&lt;div&gt;Key in positive decimal of data&amp;nbsp;&lt;/div&gt;&lt;div&gt;bits in DRAM&lt;/div&gt;" style="shape=parallelogram;perimeter=parallelogramPerimeter;whiteSpace=wrap;html=1;fixedSize=1;" vertex="1" parent="WIyWlLk6GJQsqaUBKTNV-1">
          <mxGeometry x="160" y="490" width="120" height="60" as="geometry" />
        </mxCell>
        <mxCell id="1Yr15xVgiTt50KmXI-pg-14" style="edgeStyle=orthogonalEdgeStyle;rounded=0;orthogonalLoop=1;jettySize=auto;html=1;entryX=0.5;entryY=0;entryDx=0;entryDy=0;" edge="1" parent="WIyWlLk6GJQsqaUBKTNV-1" source="1Yr15xVgiTt50KmXI-pg-6" target="1Yr15xVgiTt50KmXI-pg-3">
          <mxGeometry relative="1" as="geometry" />
        </mxCell>
        <mxCell id="1Yr15xVgiTt50KmXI-pg-6" value="integer x = 0" style="rounded=0;whiteSpace=wrap;html=1;" vertex="1" parent="WIyWlLk6GJQsqaUBKTNV-1">
          <mxGeometry x="175" y="100" width="90" height="40" as="geometry" />
        </mxCell>
        <mxCell id="1Yr15xVgiTt50KmXI-pg-16" style="edgeStyle=orthogonalEdgeStyle;rounded=0;orthogonalLoop=1;jettySize=auto;html=1;entryX=0.5;entryY=0;entryDx=0;entryDy=0;" edge="1" parent="WIyWlLk6GJQsqaUBKTNV-1" source="1Yr15xVgiTt50KmXI-pg-8" target="1Yr15xVgiTt50KmXI-pg-4">
          <mxGeometry relative="1" as="geometry" />
        </mxCell>
        <mxCell id="1Yr15xVgiTt50KmXI-pg-8" value="Store result in x" style="rounded=0;whiteSpace=wrap;html=1;" vertex="1" parent="WIyWlLk6GJQsqaUBKTNV-1">
          <mxGeometry x="175" y="260" width="90" height="40" as="geometry" />
        </mxCell>
        <mxCell id="1Yr15xVgiTt50KmXI-pg-18" style="edgeStyle=orthogonalEdgeStyle;rounded=0;orthogonalLoop=1;jettySize=auto;html=1;entryX=0.5;entryY=0;entryDx=0;entryDy=0;" edge="1" parent="WIyWlLk6GJQsqaUBKTNV-1" source="1Yr15xVgiTt50KmXI-pg-9" target="1Yr15xVgiTt50KmXI-pg-5">
          <mxGeometry relative="1" as="geometry" />
        </mxCell>
        <mxCell id="1Yr15xVgiTt50KmXI-pg-9" value="&lt;div&gt;Store input in y&lt;br&gt;&lt;/div&gt;&lt;div&gt;x = x * y&lt;/div&gt;" style="rounded=0;whiteSpace=wrap;html=1;" vertex="1" parent="WIyWlLk6GJQsqaUBKTNV-1">
          <mxGeometry x="175" y="420" width="90" height="40" as="geometry" />
        </mxCell>
        <mxCell id="1Yr15xVgiTt50KmXI-pg-20" style="edgeStyle=orthogonalEdgeStyle;rounded=0;orthogonalLoop=1;jettySize=auto;html=1;entryX=0.5;entryY=0;entryDx=0;entryDy=0;" edge="1" parent="WIyWlLk6GJQsqaUBKTNV-1" source="1Yr15xVgiTt50KmXI-pg-10" target="1Yr15xVgiTt50KmXI-pg-11">
          <mxGeometry relative="1" as="geometry" />
        </mxCell>
        <mxCell id="1Yr15xVgiTt50KmXI-pg-10" value="&lt;div&gt;Store input in y&lt;br&gt;&lt;/div&gt;&lt;div&gt;x = x * y&lt;/div&gt;&lt;div&gt;x = x / 8&lt;br&gt;&lt;/div&gt;" style="rounded=0;whiteSpace=wrap;html=1;" vertex="1" parent="WIyWlLk6GJQsqaUBKTNV-1">
          <mxGeometry x="175" y="570" width="90" height="40" as="geometry" />
        </mxCell>
        <mxCell id="1Yr15xVgiTt50KmXI-pg-21" style="edgeStyle=orthogonalEdgeStyle;rounded=0;orthogonalLoop=1;jettySize=auto;html=1;entryX=0.5;entryY=0;entryDx=0;entryDy=0;" edge="1" parent="WIyWlLk6GJQsqaUBKTNV-1" source="1Yr15xVgiTt50KmXI-pg-11" target="1Yr15xVgiTt50KmXI-pg-12">
          <mxGeometry relative="1" as="geometry" />
        </mxCell>
        <mxCell id="1Yr15xVgiTt50KmXI-pg-11" value="Print x" style="shape=parallelogram;perimeter=parallelogramPerimeter;whiteSpace=wrap;html=1;fixedSize=1;" vertex="1" parent="WIyWlLk6GJQsqaUBKTNV-1">
          <mxGeometry x="175" y="630" width="90" height="50" as="geometry" />
        </mxCell>
        <mxCell id="1Yr15xVgiTt50KmXI-pg-12" value="END" style="ellipse;whiteSpace=wrap;html=1;" vertex="1" parent="WIyWlLk6GJQsqaUBKTNV-1">
          <mxGeometry x="175" y="700" width="90" height="50" as="geometry" />
        </mxCell>
      </root>
    </mxGraphModel>
  </diagram>
</mxfile>
